<?xml version="1.0" standalone="no"?><!DOCTYPE svg PUBLIC "-//W3C//DTD SVG 1.1//EN" "http://www.w3.org/Graphics/SVG/1.1/DTD/svg11.dtd"><svg t="1583027706461" class="icon" viewBox="0 0 1024 1024" version="1.1" xmlns="http://www.w3.org/2000/svg" p-id="5917" xmlns:xlink="http://www.w3.org/1999/xlink" width="200" height="200"><defs><style type="text/css"></style></defs><path d="M787.2 25.6H236.8c-83.2 0-147.2 64-147.2 147.2V896c0 19.2 6.4 38.4 19.2 57.6 32 51.2 96 70.4 147.2 38.4l236.8-147.2c12.8-6.4 25.6-6.4 38.4 0l230.4 140.8c19.2 12.8 38.4 19.2 57.6 19.2 57.6 0 108.8-51.2 108.8-108.8V172.8c6.4-83.2-57.6-147.2-140.8-147.2z m70.4 864c0 19.2-19.2 38.4-38.4 38.4-6.4 0-12.8 0-19.2-6.4L576 780.8c-32-19.2-76.8-19.2-115.2 0l-236.8 147.2c-19.2 12.8-38.4 6.4-51.2-12.8-6.4-6.4-6.4-12.8-6.4-19.2V172.8c0-38.4 32-70.4 70.4-70.4h550.4c38.4 0 70.4 32 70.4 70.4v716.8z" p-id="5918" fill="#707070"></path><path d="M659.2 243.2H364.8c-19.2 0-38.4 19.2-38.4 38.4s19.2 38.4 38.4 38.4h294.4c19.2 0 38.4-19.2 38.4-38.4s-19.2-38.4-38.4-38.4z" p-id="5919" fill="#707070"></path></svg>