<?xml version="1.0" standalone="no"?><!DOCTYPE svg PUBLIC "-//W3C//DTD SVG 1.1//EN" "http://www.w3.org/Graphics/SVG/1.1/DTD/svg11.dtd"><svg t="1582981939925" class="icon" viewBox="0 0 1024 1024" version="1.1" xmlns="http://www.w3.org/2000/svg" p-id="11611" xmlns:xlink="http://www.w3.org/1999/xlink" width="200" height="200"><defs><style type="text/css"></style></defs><path d="M322.389333 196.949333h379.278223l35.157333-103.537777c9.955556-25.827556-8.362667-53.987556-35.214222-53.987556H596.252444C575.431111 15.36 545.564444 0 512 0S448.568889 15.36 427.747556 39.367111H322.389333c-26.794667 0-45.169778 28.16-35.214222 53.987556l35.214222 103.594666zM701.610667 275.683556H322.389333S56.888889 512 56.888889 787.683556C56.888889 945.208889 170.666667 1024 246.499556 1024h531.000888C853.333333 1024 967.111111 945.208889 967.111111 787.683556c0-275.683556-265.500444-512-265.500444-512z m-151.665778 547.384888v63.089778H474.055111v-62.919111c-55.751111-10.865778-90.851556-46.478222-92.899555-98.474667h65.706666c3.128889 27.306667 29.696 44.885333 67.982222 44.885334 35.328 0 60.302222-17.749333 60.302223-43.235556 0-21.504-16.213333-33.848889-56.035556-42.780444l-42.268444-9.329778c-59.164444-12.856889-88.234667-44.885333-88.234667-96.256 0-51.712 32.938667-88.576 85.504-100.693333V413.525333h75.832889v63.658667c51.2 11.889778 85.390222 48.128 87.096889 97.109333H573.098667c-3.128889-26.624-27.022222-44.373333-59.847111-44.373333-33.962667 0-56.490667 16.327111-56.490667 42.040889 0 20.821333 15.530667 32.711111 53.532444 41.130667l39.139556 8.647111c65.251556 14.279111 93.354667 43.463111 93.354667 95.800889 0.056889 56.263111-34.759111 94.037333-92.842667 105.528888z" p-id="11612" fill="#515151"></path></svg>