<?xml version="1.0" standalone="no"?><!DOCTYPE svg PUBLIC "-//W3C//DTD SVG 1.1//EN" "http://www.w3.org/Graphics/SVG/1.1/DTD/svg11.dtd"><svg t="1583027299504" class="icon" viewBox="0 0 1087 1024" version="1.1" xmlns="http://www.w3.org/2000/svg" p-id="2910" xmlns:xlink="http://www.w3.org/1999/xlink" width="212.3046875" height="200"><defs><style type="text/css"></style></defs><path d="M1023.788911 240.013093v557.854614h-375.03745l-3.262308 8.82742 229.832775 164.266787-38.827858 52.580724c-91.920316-65.31012-181.409894-127.677767-269.172367-192.220286-22.196486-16.247572-36.78092-15.735837-58.465671 0.1919-87.82644 64.350618-177.06015 126.846199-268.212865 191.772519a26326.822999 26326.822999 0 0 1-40.107195-51.941056l239.363831-170.919336H67.676893V238.989624H0.511735V90.906442c117.57101 1.21537 235.078054 2.558673 352.585097 3.518175 49.254449 0.447768 98.444932 0.063967 150.449954 0.063966L508.216364 0.265462h74.009607v92.815851h505.018023v142.326169l-63.455083 4.605611z m-66.077722 1.023469H130.23644v496.190602h827.474749V241.036562zM354.184267 339.033726c71.834736-3.965943 130.940075 49.062549 137.08089 128.445369H360.77285v124.863228c-72.15457 3.646109-129.532805-48.358914-133.178914-116.611508-3.838009-73.56184 50.789653-132.603212 126.590331-136.697089z m54.499729 290.985052V506.754721h125.822729c6.268748 66.845324-50.85362 123.136123-125.822729 123.264057z m400.112442-37.932323h-165.80199v-38.124223h165.80199v38.124223z m-165.738024-126.078597h165.674057l2.174872 38.252157h-167.848929v-38.252157z m0.767602-87.82644h165.098356v39.659427h-165.098356v-39.659427z" p-id="2911" fill="#515151"></path></svg>